<svg width="20" height="20" viewBox="0 0 20 20" fill="none" xmlns="http://www.w3.org/2000/svg">
<path d="M9.89629 11.9425C8.60885 11.9425 7.56741 10.9395 7.56741 9.67972C7.56741 8.41994 8.60885 7.40891 9.89629 7.40891C11.1837 7.40891 12.2006 8.41994 12.2006 9.67972C12.2006 10.9395 11.1837 11.9425 9.89629 11.9425Z" fill="white" fill-opacity="0.7"/>
<path opacity="0.4" d="M17.2928 11.5734C17.137 11.3327 16.9156 11.0919 16.6286 10.9395C16.399 10.8272 16.2514 10.6426 16.1202 10.426C15.702 9.73588 15.948 8.82916 16.645 8.41993C17.465 7.96256 17.7274 6.9435 17.2518 6.14912L16.7024 5.20228C16.235 4.4079 15.2099 4.12706 14.3981 4.59245C13.6765 4.97761 12.7499 4.72084 12.3316 4.03879C12.2004 3.81412 12.1266 3.57339 12.143 3.33267C12.1676 3.01973 12.0692 2.72284 11.9216 2.48212C11.6182 1.98463 11.0688 1.64762 10.462 1.64762H9.30575C8.70713 1.66367 8.15771 1.98463 7.8543 2.48212C7.6985 2.72284 7.6083 3.01973 7.6247 3.33267C7.6411 3.57339 7.5673 3.81412 7.43609 4.03879C7.01788 4.72084 6.09125 4.97761 5.37783 4.59245C4.5578 4.12706 3.54097 4.4079 3.06535 5.20228L2.51593 6.14912C2.04852 6.9435 2.31093 7.96256 3.12275 8.41993C3.81978 8.82916 4.06578 9.73588 3.65577 10.426C3.51637 10.6426 3.36876 10.8272 3.13915 10.9395C2.86035 11.0919 2.61434 11.3327 2.48313 11.5734C2.17972 12.0709 2.19612 12.6968 2.49953 13.2183L3.06535 14.1812C3.36876 14.6948 3.93458 15.0157 4.525 15.0157C4.80381 15.0157 5.13182 14.9355 5.39423 14.775C5.59923 14.6386 5.84524 14.5904 6.11585 14.5904C6.92767 14.5904 7.6083 15.2564 7.6247 16.0508C7.6247 16.9736 8.37912 17.6958 9.33035 17.6958H10.4456C11.3886 17.6958 12.143 16.9736 12.143 16.0508C12.1676 15.2564 12.8483 14.5904 13.6601 14.5904C13.9225 14.5904 14.1685 14.6386 14.3817 14.775C14.6441 14.9355 14.9639 15.0157 15.2509 15.0157C15.8332 15.0157 16.399 14.6948 16.7024 14.1812L17.2764 13.2183C17.5716 12.6807 17.5962 12.0709 17.2928 11.5734Z" fill="white" fill-opacity="0.7"/>
</svg>
