<svg width="20" height="20" viewBox="0 0 20 20" fill="none" xmlns="http://www.w3.org/2000/svg">
<path opacity="0.4" d="M4.04748 17.7215C4.03704 17.7215 4.02742 17.7215 4.01618 17.7207C3.76342 17.7079 3.51548 17.6533 3.27957 17.5578C2.11849 17.086 1.55841 15.7596 2.02942 14.5994L7.90384 4.30769C8.10605 3.94179 8.41257 3.63527 8.78649 3.42825C9.88178 2.82163 11.2667 3.22043 11.8726 4.31491L17.7085 14.5279C17.8384 14.8337 17.8938 15.0824 17.9075 15.336C17.9387 15.9426 17.7317 16.5243 17.3257 16.9745C16.9197 17.4246 16.362 17.6902 15.7562 17.7207L4.10525 17.7215H4.04748Z" fill="white" fill-opacity="0.7"/>
<path fill-rule="evenodd" clip-rule="evenodd" d="M9.18411 8.77752C9.18411 8.39076 9.49946 8.07542 9.88622 8.07542C10.273 8.07542 10.5883 8.39076 10.5883 8.77752V11.0467C10.5883 11.4343 10.273 11.7488 9.88622 11.7488C9.49946 11.7488 9.18411 11.4343 9.18411 11.0467V8.77752ZM9.18415 13.7918C9.18415 13.4026 9.49949 13.0857 9.88625 13.0857C10.273 13.0857 10.5884 13.3986 10.5884 13.783C10.5884 14.1786 10.273 14.4939 9.88625 14.4939C9.49949 14.4939 9.18415 14.1786 9.18415 13.7918Z" fill="white" fill-opacity="0.7"/>
</svg>
