<svg width="65" height="26" viewBox="0 0 65 26" fill="none" xmlns="http://www.w3.org/2000/svg">
<g clip-path="url(#clip0_8_5405)">
<path d="M24.6934 5.87466V19.4435H29.6489C33.7111 19.4435 36.0995 16.9234 36.0995 12.6262C36.0995 8.32891 33.7017 5.87466 29.6489 5.87466H24.6934ZM27.1194 7.92457H29.395C32.1031 7.92457 33.6264 9.59832 33.6264 12.6356C33.6264 15.7292 32.1219 17.3936 29.395 17.3936H27.1194V7.92457Z" fill="white"/>
<path d="M37.8582 19.4435H40.1995V5.87466H37.8582V19.4435Z" fill="white"/>
<path d="M48.7939 16.4626C48.54 17.2902 47.7125 17.8355 46.6217 17.8355C45.089 17.8355 44.111 16.7635 44.111 15.165V15.0239H51.0788V14.2623C51.0788 11.2345 49.311 9.26923 46.4807 9.26923C43.6032 9.26923 41.7791 11.3473 41.7791 14.4974C41.7791 17.6756 43.5845 19.6409 46.5747 19.6409C48.9349 19.6409 50.6839 18.3433 50.9848 16.4626H48.7939ZM46.4901 11.084C47.8347 11.084 48.7374 12.0714 48.7845 13.4819H44.1299C44.2239 12.0902 45.1736 11.084 46.4901 11.084Z" fill="white"/>
<path d="M56.3164 15.8702L58.3851 19.4434H60.9428L57.7739 14.4033L60.9804 9.47601H58.4134L56.4293 12.974H56.3822L54.37 9.47601H51.737L54.9247 14.4691L51.7089 19.4434H54.2007L56.2694 15.8702H56.3164Z" fill="white"/>
<path fill-rule="evenodd" clip-rule="evenodd" d="M9.89282 22.725C15.2077 22.7214 19.5152 18.4119 19.5152 13.0962C19.5152 7.78044 15.2077 3.4708 9.89282 3.46735C13.6587 5.04104 16.3049 8.75954 16.3049 13.0962C16.3049 17.4327 13.6587 21.1512 9.89282 22.725Z" fill="white" fill-opacity="0.16"/>
<path d="M0.257812 6.67726C0.257812 4.90462 1.69481 3.46762 3.46745 3.46762H5.87478C11.1926 3.46762 15.5036 7.77858 15.5036 13.0964C15.5036 18.4143 11.1926 22.7252 5.87478 22.7252H3.46745C1.69481 22.7252 0.257812 21.2882 0.257812 19.5156V6.67726Z" fill="white"/>
</g>
<defs>
<clipPath id="clip0_8_5405">
<rect width="64.1926" height="25.677" fill="white" transform="translate(0.257812 0.257751)"/>
</clipPath>
</defs>
</svg>
